<svg width="35" height="35" viewBox="0 0 35 35" fill="none" xmlns="http://www.w3.org/2000/svg">
<path fill-rule="evenodd" clip-rule="evenodd" d="M0.776582 13.0006L0.87803 13.0124L2.95803 13.4127C3.25698 13.4702 3.49136 13.7208 3.55981 14.0414L3.5775 14.1647L3.81223 17.2803H17.9091C19.1322 17.2803 20.0821 18.4375 19.9948 19.7709L19.9784 19.9384L19.0294 27.2315C18.8548 28.5679 17.8628 29.574 16.6665 29.6589L16.5021 29.6647H5.59013C4.31733 29.6647 3.24868 28.6261 3.06468 27.2444L3.04575 27.0623L2.13123 14.9462L0.622217 14.6559C0.248083 14.5839 -0.0129962 14.2153 0.000499955 13.8047L0.0111097 13.6919C0.0758637 13.2759 0.4074 12.9855 0.776582 13.0006ZM4.54053 26.9233C4.58284 27.4872 4.97892 27.9295 5.47419 27.9898L5.59012 27.9968H16.5021C16.9852 27.9968 17.4006 27.6325 17.521 27.1226L17.5448 26.9922L18.4938 19.6997C18.5411 19.3361 18.313 19.0078 17.9972 18.9556L17.9091 18.9484H3.93823L4.54053 26.9233ZM5.42253 31.4265C4.58623 31.4265 3.90857 32.1815 3.90857 33.1112C3.90857 34.0411 4.58634 34.7948 5.42253 34.7948C6.25862 34.7948 6.9375 34.0412 6.9375 33.1112C6.9375 32.1813 6.25873 31.4265 5.42253 31.4265ZM16.6749 31.4265C15.8387 31.4265 15.1599 32.1813 15.1599 33.1112C15.1599 34.0412 15.8388 34.7948 16.6749 34.7948C17.511 34.7948 18.1899 34.0412 18.1899 33.1112C18.1899 32.1813 17.5111 31.4265 16.6749 31.4265Z" fill="white"/>
<ellipse cx="26.7" cy="9" rx="7.7" ry="7" fill="#FFC220"/>
<path d="M23.576 12.028C23.852 12.328 24.548 13.12 26.06 13.12C27.776 13.12 28.808 12.1 28.808 10.696C28.808 9.592 27.908 8.968 27.32 8.728V8.692C27.884 8.428 28.604 7.684 28.604 6.736C28.604 5.344 27.548 4.48 26.048 4.48C24.704 4.48 23.816 5.572 23.816 5.572C23.732 5.656 23.72 5.812 23.816 5.896L24.116 6.124C24.236 6.244 24.356 6.184 24.428 6.1C24.704 5.788 25.208 5.296 26.048 5.296C26.936 5.296 27.668 5.884 27.668 6.856C27.668 7.672 27.032 8.356 25.712 8.356H25.028C24.824 8.356 24.764 8.428 24.764 8.62V8.92C24.764 9.124 24.872 9.196 25.004 9.196H25.7C27.224 9.196 27.884 9.868 27.884 10.792C27.884 11.8 27.044 12.352 26.108 12.352C25.04 12.352 24.368 11.644 24.26 11.5C24.164 11.368 24.068 11.344 23.924 11.44L23.588 11.728C23.492 11.8 23.504 11.932 23.576 12.028Z" fill="black"/>
</svg>
