<?xml version="1.0" encoding="utf-8"?>
<!--   Generator: Adobe Illustrator 24.3.0, SVG Export Plug-In . SVG Version: 6.00 Build 0)  -->
<svg version="1.1" id="Layer_1" xmlns="http://www.w3.org/2000/svg" xmlns:xlink="http://www.w3.org/1999/xlink" x="0px" y="0px"
	 viewBox="-20 0 1 73" width="132px" height="44px" xml:space="preserve">

<style type="text/css">
	.st0{fill:#FFFFFF;}
	.st1{fill:#FFC220;}
</style>
<g>
	<g>
		<g>
			<path class="st0" d="M51.9,45.9c0,1.1,1.2,2.1,2.7,2.1c1.5,0,2.7-1,2.7-2.1l0.2-6.4l6.4-0.2c1.1,0,2.1-1.2,2.1-2.7
				c0-1.5-1-2.7-2.1-2.7l-6.4-0.2l-0.2-6.4c0-1.1-1.2-2.1-2.7-2.1c-1.5,0-2.7,1-2.7,2.1l-0.2,6.4l-6.4,0.3c-1.1,0-2.1,1.2-2.1,2.7
				c0,1.5,1,2.7,2.1,2.7l6.4,0.2L51.9,45.9z"/>
			<g>
				<path class="st1" d="M52.4,18.8L51.2,5.7c-0.1-1.3,1.5-2.4,3.4-2.4c1.9,0,3.6,1.1,3.4,2.4l-1.2,13.1c0,0.8-1.1,1.4-2.3,1.4
					C53.5,20.2,52.4,19.6,52.4,18.8"/>
				<path class="st1" d="M69.1,47.3l10.8,7.6c1.1,0.7,2.8-0.1,3.8-1.8c1-1.7,0.8-3.6-0.3-4.2l-12-5.6c-0.7-0.3-1.8,0.2-2.3,1.3
					C68.4,45.7,68.5,46.8,69.1,47.3"/>
				<path class="st1" d="M68.7,28.2c0.6,1,1.6,1.6,2.4,1.3l12-5.6c1.2-0.6,1.3-2.5,0.3-4.2c-1-1.7-2.7-2.5-3.8-1.8l-10.8,7.6
					C68.1,26,68.1,27.1,68.7,28.2"/>
				<path class="st1" d="M52.4,54.4l-1.2,13.1c-0.1,1.2,1.5,2.4,3.4,2.4c1.9,0,3.5-1.1,3.4-2.4l-1.2-13.1c-0.1-0.8-1.1-1.4-2.3-1.4
					C53.5,53,52.5,53.7,52.4,54.4"/>
			</g>
		</g>
	</g>
	<g>
		<g>
			<path class="st0" d="M11.2,21.4c0.6,3.1,2.3,12,2.3,12c0.7,3.7,1.4,7.5,1.9,10.6h0.1c0.5-3.2,1.3-6.3,2.1-10.1l2.9-12.5h6.5
				l2.7,12.8c0.7,3.6,1.3,6.3,1.7,9.6h0.1c0.5-3.3,1.1-6.2,1.8-9.9l2.6-12.6h6.2l-7.7,29c-4.9,1.1-6.8-0.9-7.4-4
				c-0.7-3.1-2-9.1-2-9.1c-0.7-3.3-1.2-5.6-1.6-8.9h-0.1c-0.5,3.3-1.1,5.6-1.9,8.9l-3.2,13.1c-5,1-6.7-0.5-7.7-4.5
				c-0.8-3.4-6-24.6-6-24.6H11.2z"/>
		</g>
	</g>
</g>
</svg>

